<svg xmlns="http://www.w3.org/2000/svg" xmlns:xlink="http://www.w3.org/1999/xlink" width="1200" height="700" viewBox="0 0 1200 700">
    <defs>
        <linearGradient id="prefix__c" x1="56.244%" x2="14.106%" y1="72.285%" y2="90.302%">
            <stop offset="0%" stop-color="#3EB456"/>
            <stop offset="100%" stop-color="#19546D"/>
        </linearGradient>
        <filter id="prefix__a" width="103.7%" height="103.3%" x="-1.9%" y="-1.1%" filterUnits="objectBoundingBox">
            <feMorphology in="SourceAlpha" operator="dilate" radius="1" result="shadowSpreadOuter1"/>
            <feOffset dy="8" in="shadowSpreadOuter1" result="shadowOffsetOuter1"/>
            <feGaussianBlur in="shadowOffsetOuter1" result="shadowBlurOuter1" stdDeviation="6"/>
            <feComposite in="shadowBlurOuter1" in2="SourceAlpha" operator="out" result="shadowBlurOuter1"/>
            <feColorMatrix in="shadowBlurOuter1" values="0 0 0 0 0 0 0 0 0 0 0 0 0 0 0 0 0 0 0.5 0"/>
        </filter>
        <path id="prefix__b" d="M1250.157 165.023l590.331 341.513c15.45 8.937 24.963 25.432 24.963 43.28v681.305c0 17.863-9.53 34.37-25 43.301l-590.003 340.638c-15.47 8.932-34.53 8.932-50 0l-590.003-340.638c-15.47-8.931-25-25.438-25-43.301V549.8c0-17.84 9.505-34.328 24.942-43.268l589.675-341.497c15.492-8.972 34.599-8.976 50.095-.012z"/>
    </defs>
    <g fill="none" fill-rule="evenodd">
        <path fill="#F6EEF9" d="M0 1219H1200V1919H0z" transform="translate(0 -1219)"/>
        <g transform="translate(0 -1219) rotate(-65 1225.448 890.031)">
            <use fill="#000" filter="url(#prefix__a)" xlink:href="#prefix__b"/>
            <use fill="url(#prefix__c)" stroke="#979797" xlink:href="#prefix__b"/>
        </g>
    </g>
</svg>
